<?xml version="1.0" encoding="utf-8"?>
<!-- Generator: Adobe Illustrator 24.1.0, SVG Export Plug-In . SVG Version: 6.00 Build 0)  -->
<svg version="1.1" id="Layer_1" xmlns="http://www.w3.org/2000/svg" xmlns:xlink="http://www.w3.org/1999/xlink" x="0px" y="0px"
	 viewBox="0 0 85.04 85.04" style="enable-background:new 0 0 85.04 85.04;" xml:space="preserve">
<style type="text/css">
	.st0{fill:#F0AA00;}
	.st1{fill:#008D58;}
	.st2{fill:#951B81;}
	.st3{fill:#76B82A;}
	.st4{fill:#16BAE7;}
	.st5{fill:#EC6725;}
	.st6{fill:#0065AE;}
	.st7{fill:#C20831;}
</style>
<g>
	
		<rect x="35.71" y="-20.99" transform="matrix(6.123234e-17 -1 1 6.123234e-17 14.9479 67.6068)" class="st0" width="11.14" height="94.63"/>
	
		<rect x="35.61" y="0.27" transform="matrix(6.123234e-17 -1 1 6.123234e-17 -6.3944 88.7666)" class="st1" width="11.14" height="94.63"/>
	
		<rect x="37.65" y="29.94" transform="matrix(6.123234e-17 -1 1 6.123234e-17 -35.9759 122.9382)" class="st2" width="11.66" height="99.04"/>
	
		<rect x="35.57" y="-10.36" transform="matrix(6.123234e-17 -1 1 6.123234e-17 4.1855 78.0954)" class="st3" width="11.14" height="94.63"/>
	
		<rect x="35.59" y="10.89" transform="matrix(6.123234e-17 -1 1 6.123234e-17 -17.0427 99.3693)" class="st4" width="11.14" height="94.63"/>
	
		<rect x="35.66" y="-31.61" transform="matrix(6.123234e-17 -1 1 6.123234e-17 25.5278 56.9357)" class="st5" width="11.14" height="94.63"/>
	
		<rect x="35.55" y="21.52" transform="matrix(6.123234e-17 -1 1 6.123234e-17 -27.7139 109.9491)" class="st6" width="11.14" height="94.63"/>
	
		<rect x="35.52" y="-42.24" transform="matrix(6.123234e-17 -1 1 6.123234e-17 36.0164 46.1732)" class="st7" width="11.14" height="94.63"/>
</g>
</svg>
